<?xml version="1.0" encoding="UTF-8" standalone="no"?>
<!DOCTYPE svg PUBLIC "-//W3C//DTD SVG 1.1//EN"
 "http://www.w3.org/Graphics/SVG/1.1/DTD/svg11.dtd">
<!-- Generated by graphviz version 2.44.0 (0)
 -->
<!-- Pages: 1 -->
<svg width="368pt" height="331pt"
 viewBox="0.00 0.00 368.12 330.96" xmlns="http://www.w3.org/2000/svg" xmlns:xlink="http://www.w3.org/1999/xlink">
<g id="graph0" class="graph" transform="scale(1 1) rotate(0) translate(4 326.96)">
<polygon fill="white" stroke="transparent" points="-4,4 -4,-326.96 364.12,-326.96 364.12,4 -4,4"/>
<!-- 1/build_lfric_atm -->
<g id="node1" class="node">
<title>1/build_lfric_atm</title>
<ellipse fill="none" stroke="black" cx="83.44" cy="-116.61" rx="83.38" ry="26.74"/>
<text text-anchor="middle" x="83.44" y="-120.41" font-family="sans" font-size="14.00">build_lfric_atm</text>
<text text-anchor="middle" x="83.44" y="-105.41" font-family="sans" font-size="14.00">1</text>
</g>
<!-- 1/lfric_atm -->
<g id="node5" class="node">
<title>1/lfric_atm</title>
<ellipse fill="none" stroke="black" cx="177.44" cy="-26.87" rx="54.39" ry="26.74"/>
<text text-anchor="middle" x="177.44" y="-30.67" font-family="sans" font-size="14.00">lfric_atm</text>
<text text-anchor="middle" x="177.44" y="-15.67" font-family="sans" font-size="14.00">1</text>
</g>
<!-- 1/build_lfric_atm&#45;&gt;1/lfric_atm -->
<g id="edge1" class="edge">
<title>1/build_lfric_atm&#45;&gt;1/lfric_atm</title>
<path fill="none" stroke="black" d="M109.87,-90.94C120.92,-80.62 133.86,-68.55 145.43,-57.74"/>
<polygon fill="black" stroke="black" points="147.89,-60.24 152.81,-50.85 143.12,-55.12 147.89,-60.24"/>
</g>
<!-- 1/build_mesh -->
<g id="node2" class="node">
<title>1/build_mesh</title>
<ellipse fill="none" stroke="black" cx="248.44" cy="-206.35" rx="67.76" ry="26.74"/>
<text text-anchor="middle" x="248.44" y="-210.15" font-family="sans" font-size="14.00">build_mesh</text>
<text text-anchor="middle" x="248.44" y="-195.15" font-family="sans" font-size="14.00">1</text>
</g>
<!-- 1/generate_mesh -->
<g id="node4" class="node">
<title>1/generate_mesh</title>
<ellipse fill="none" stroke="black" cx="272.44" cy="-116.61" rx="87.86" ry="26.74"/>
<text text-anchor="middle" x="272.44" y="-120.41" font-family="sans" font-size="14.00">generate_mesh</text>
<text text-anchor="middle" x="272.44" y="-105.41" font-family="sans" font-size="14.00">1</text>
</g>
<!-- 1/build_mesh&#45;&gt;1/generate_mesh -->
<g id="edge2" class="edge">
<title>1/build_mesh&#45;&gt;1/generate_mesh</title>
<path fill="none" stroke="black" d="M255.51,-179.5C257.76,-171.27 260.29,-162.02 262.69,-153.23"/>
<polygon fill="black" stroke="black" points="266.07,-154.15 265.34,-143.58 259.32,-152.3 266.07,-154.15"/>
</g>
<!-- 1/fcm_make_extract_lfric -->
<g id="node3" class="node">
<title>1/fcm_make_extract_lfric</title>
<ellipse fill="none" stroke="black" cx="177.44" cy="-296.09" rx="124.4" ry="26.74"/>
<text text-anchor="middle" x="177.44" y="-299.89" font-family="sans" font-size="14.00">fcm_make_extract_lfric</text>
<text text-anchor="middle" x="177.44" y="-284.89" font-family="sans" font-size="14.00">1</text>
</g>
<!-- 1/fcm_make_extract_lfric&#45;&gt;1/build_lfric_atm -->
<g id="edge3" class="edge">
<title>1/fcm_make_extract_lfric&#45;&gt;1/build_lfric_atm</title>
<path fill="none" stroke="black" d="M163.77,-269.28C147.43,-238.44 120.03,-186.69 101.84,-152.35"/>
<polygon fill="black" stroke="black" points="104.74,-150.36 96.97,-143.16 98.56,-153.64 104.74,-150.36"/>
</g>
<!-- 1/fcm_make_extract_lfric&#45;&gt;1/build_mesh -->
<g id="edge4" class="edge">
<title>1/fcm_make_extract_lfric&#45;&gt;1/build_mesh</title>
<path fill="none" stroke="black" d="M198.36,-269.24C205.77,-260.08 214.21,-249.65 222.02,-239.99"/>
<polygon fill="black" stroke="black" points="224.83,-242.09 228.4,-232.11 219.39,-237.68 224.83,-242.09"/>
</g>
<!-- 1/generate_mesh&#45;&gt;1/lfric_atm -->
<g id="edge5" class="edge">
<title>1/generate_mesh&#45;&gt;1/lfric_atm</title>
<path fill="none" stroke="black" d="M245.72,-90.94C234.56,-80.62 221.49,-68.55 209.78,-57.74"/>
<polygon fill="black" stroke="black" points="212.05,-55.07 202.33,-50.85 207.3,-60.21 212.05,-55.07"/>
</g>
</g>
</svg>
